<?xml version="1.0" encoding="UTF-8" standalone="no"?>
<!-- Created with Inkscape (http://www.inkscape.org/) -->

<svg
   xmlns:dc="http://purl.org/dc/elements/1.1/"
   xmlns:cc="http://creativecommons.org/ns#"
   xmlns:rdf="http://www.w3.org/1999/02/22-rdf-syntax-ns#"
   xmlns:svg="http://www.w3.org/2000/svg"
   xmlns="http://www.w3.org/2000/svg"
   xmlns:sodipodi="http://sodipodi.sourceforge.net/DTD/sodipodi-0.dtd"
   xmlns:inkscape="http://www.inkscape.org/namespaces/inkscape"
   width="67.309059"
   height="362.61169"
   id="svg3729"
   version="1.1"
   inkscape:version="0.47 r22583"
   sodipodi:docname="powerstrip.svg"
   style="display:inline">
  <defs
     id="defs3731">
    <inkscape:perspective
       sodipodi:type="inkscape:persp3d"
       inkscape:vp_x="0 : 526.18109 : 1"
       inkscape:vp_y="0 : 1000 : 0"
       inkscape:vp_z="744.09448 : 526.18109 : 1"
       inkscape:persp3d-origin="372.04724 : 350.78739 : 1"
       id="perspective3737" />
    <inkscape:perspective
       id="perspective3747"
       inkscape:persp3d-origin="0.5 : 0.33333333 : 1"
       inkscape:vp_z="1 : 0.5 : 1"
       inkscape:vp_y="0 : 1000 : 0"
       inkscape:vp_x="0 : 0.5 : 1"
       sodipodi:type="inkscape:persp3d" />
    <inkscape:perspective
       id="perspective4286"
       inkscape:persp3d-origin="0.5 : 0.33333333 : 1"
       inkscape:vp_z="1 : 0.5 : 1"
       inkscape:vp_y="0 : 1000 : 0"
       inkscape:vp_x="0 : 0.5 : 1"
       sodipodi:type="inkscape:persp3d" />
    <inkscape:perspective
       id="perspective4286-0"
       inkscape:persp3d-origin="0.5 : 0.33333333 : 1"
       inkscape:vp_z="1 : 0.5 : 1"
       inkscape:vp_y="0 : 1000 : 0"
       inkscape:vp_x="0 : 0.5 : 1"
       sodipodi:type="inkscape:persp3d" />
    <inkscape:perspective
       id="perspective4286-02"
       inkscape:persp3d-origin="0.5 : 0.33333333 : 1"
       inkscape:vp_z="1 : 0.5 : 1"
       inkscape:vp_y="0 : 1000 : 0"
       inkscape:vp_x="0 : 0.5 : 1"
       sodipodi:type="inkscape:persp3d" />
    <inkscape:perspective
       id="perspective4286-03"
       inkscape:persp3d-origin="0.5 : 0.33333333 : 1"
       inkscape:vp_z="1 : 0.5 : 1"
       inkscape:vp_y="0 : 1000 : 0"
       inkscape:vp_x="0 : 0.5 : 1"
       sodipodi:type="inkscape:persp3d" />
    <inkscape:perspective
       id="perspective4286-5"
       inkscape:persp3d-origin="0.5 : 0.33333333 : 1"
       inkscape:vp_z="1 : 0.5 : 1"
       inkscape:vp_y="0 : 1000 : 0"
       inkscape:vp_x="0 : 0.5 : 1"
       sodipodi:type="inkscape:persp3d" />
    <inkscape:perspective
       id="perspective4443"
       inkscape:persp3d-origin="0.5 : 0.33333333 : 1"
       inkscape:vp_z="1 : 0.5 : 1"
       inkscape:vp_y="0 : 1000 : 0"
       inkscape:vp_x="0 : 0.5 : 1"
       sodipodi:type="inkscape:persp3d" />
    <inkscape:perspective
       id="perspective4443-1"
       inkscape:persp3d-origin="0.5 : 0.33333333 : 1"
       inkscape:vp_z="1 : 0.5 : 1"
       inkscape:vp_y="0 : 1000 : 0"
       inkscape:vp_x="0 : 0.5 : 1"
       sodipodi:type="inkscape:persp3d" />
    <inkscape:perspective
       id="perspective4443-9"
       inkscape:persp3d-origin="0.5 : 0.33333333 : 1"
       inkscape:vp_z="1 : 0.5 : 1"
       inkscape:vp_y="0 : 1000 : 0"
       inkscape:vp_x="0 : 0.5 : 1"
       sodipodi:type="inkscape:persp3d" />
  </defs>
  <sodipodi:namedview
     id="base"
     pagecolor="#ffffff"
     bordercolor="#666666"
     borderopacity="1.0"
     inkscape:pageopacity="0.0"
     inkscape:pageshadow="2"
     inkscape:zoom="1.979899"
     inkscape:cx="68.872929"
     inkscape:cy="174.1145"
     inkscape:document-units="px"
     inkscape:current-layer="layer3"
     showgrid="false"
     inkscape:window-width="1912"
     inkscape:window-height="1053"
     inkscape:window-x="1920"
     inkscape:window-y="0"
     inkscape:window-maximized="1" />
  <metadata
     id="metadata3734">
    <rdf:RDF>
      <cc:Work
         rdf:about="">
        <dc:format>image/svg+xml</dc:format>
        <dc:type
           rdf:resource="http://purl.org/dc/dcmitype/StillImage" />
        <dc:title></dc:title>
      </cc:Work>
    </rdf:RDF>
  </metadata>
  <g
     inkscape:groupmode="layer"
     id="layer3"
     inkscape:label="Layer"
     transform="translate(-94.499999,-4.2077224)">
    <rect
       style="fill:none;stroke:#000000;stroke-width:1.61357343;stroke-linecap:butt;stroke-linejoin:miter;stroke-miterlimit:4;stroke-opacity:1;stroke-dasharray:none;stroke-dashoffset:0"
       id="rect4264"
       width="65.695488"
       height="327.90115"
       x="95.306786"
       y="38.111485"
       ry="4.4823771" />
    <path
       style="fill:#878787;fill-opacity:1;stroke:#000000;stroke-width:1.61357343px;stroke-linecap:butt;stroke-linejoin:miter;stroke-opacity:1"
       d="m 116.62901,128.58685 22.47477,0 3.31359,3.81783 3.24156,4.61021 0.14409,11.95773 -1.87293,4.178 -4.6102,5.47462 -23.05106,0.14408 -3.45766,-2.80935 -3.52969,-4.75428 -0.4322,-3.24155 -0.2161,-10.44501 2.16102,-3.52969 5.83481,-5.40259 z"
       id="path4266" />
    <path
       style="fill:#878787;fill-opacity:1;stroke:#000000;stroke-width:1.61357343px;stroke-linecap:butt;stroke-linejoin:miter;stroke-opacity:1"
       d="m 118.42986,170.54697 22.47477,0 3.31358,3.81781 3.24156,4.61022 0.14409,11.95772 -1.87292,4.17801 -4.61021,5.47463 -23.05105,0.14409 -3.45767,-2.80936 -3.52969,-4.75428 -0.43219,-3.24155 -0.21611,-10.445 2.16103,-3.5297 5.83481,-5.40258 z"
       id="path4266-6" />
    <path
       style="fill:none;stroke:#000000;stroke-width:1.61357343px;stroke-linecap:butt;stroke-linejoin:miter;stroke-opacity:1"
       d="m 117.27732,208.58118 22.47477,0 3.31358,3.81783 3.24156,4.61021 0.14409,11.95774 -1.87292,4.17799 -4.61021,5.47463 -23.05106,0.14409 -3.45766,-2.80934 -3.52969,-4.75429 -0.4322,-3.24155 -0.2161,-10.44502 2.16102,-3.52969 5.83482,-5.40258 z"
       id="path4266-61" />
    <path
       style="fill:none;stroke:#000000;stroke-width:1.61357343px;stroke-linecap:butt;stroke-linejoin:miter;stroke-opacity:1"
       d="m 132.33254,214.19989 0.14409,8.86023 4.03393,0.072 -0.072,-9.07633 -4.10603,0.14409 z"
       id="path4268-1"
       sodipodi:nodetypes="ccccc" />
    <path
       style="fill:none;stroke:#000000;stroke-width:1.61357343px;stroke-linecap:butt;stroke-linejoin:miter;stroke-opacity:1"
       d="m 119.22224,213.6236 0.14409,13.61452 4.82629,0.072 0.072,-13.47045 -5.04235,-0.21611 z"
       id="path4272-6" />
    <path
       style="fill:none;stroke:#000000;stroke-width:1.61357343px;stroke-linecap:butt;stroke-linejoin:miter;stroke-opacity:1"
       d="m 125.84942,235.37802 5.61869,0 0,-2.44916 -0.93645,-1.80088 -1.87289,-0.6483 -1.72883,0.6483 -1.08052,1.80088 0,2.44916 z"
       id="path4276-1" />
    <path
       style="fill:none;stroke:#000000;stroke-width:1.61357343px;stroke-linecap:butt;stroke-linejoin:miter;stroke-opacity:1"
       d="m 117.27732,248.05611 22.47477,0 3.31358,3.81783 3.24156,4.61022 0.14409,11.95772 -1.87292,4.17801 -4.61021,5.47462 -23.05106,0.14409 -3.45766,-2.80935 -3.52969,-4.75428 -0.4322,-3.24155 -0.2161,-10.445 2.16102,-3.5297 5.83482,-5.40259 z"
       id="path4266-5" />
    <path
       style="fill:none;stroke:#000000;stroke-width:1.61357343px;stroke-linecap:butt;stroke-linejoin:miter;stroke-opacity:1"
       d="m 132.33254,253.67481 0.14409,8.86025 4.03393,0.072 -0.072,-9.07635 -4.10603,0.1441 z"
       id="path4268-4"
       sodipodi:nodetypes="ccccc" />
    <path
       style="fill:none;stroke:#000000;stroke-width:1.61357343px;stroke-linecap:butt;stroke-linejoin:miter;stroke-opacity:1"
       d="m 119.22224,253.09853 0.14409,13.61452 4.82629,0.072 0.072,-13.47045 -5.04235,-0.21611 z"
       id="path4272-5" />
    <path
       style="fill:none;stroke:#000000;stroke-width:1.61357343px;stroke-linecap:butt;stroke-linejoin:miter;stroke-opacity:1"
       d="m 125.84942,274.85297 5.61869,0 0,-2.44918 -0.93645,-1.80086 -1.87289,-0.64832 -1.72883,0.64832 -1.08052,1.80086 0,2.44918 z"
       id="path4276-13" />
    <path
       style="fill:none;stroke:#000000;stroke-width:1.61357343px;stroke-linecap:butt;stroke-linejoin:miter;stroke-opacity:1"
       d="m 117.27732,285.80221 22.47477,0 3.31358,3.81782 3.24156,4.61021 0.14409,11.95774 -1.87292,4.17799 -4.61021,5.47463 -23.05106,0.14409 -3.45766,-2.80936 -3.52969,-4.75428 -0.4322,-3.24154 -0.2161,-10.44501 2.16102,-3.52969 5.83482,-5.40259 z"
       id="path4266-2" />
    <path
       style="fill:none;stroke:#000000;stroke-width:1.61357343px;stroke-linecap:butt;stroke-linejoin:miter;stroke-opacity:1"
       d="m 132.33254,291.4209 0.14409,8.86024 4.03393,0.072 -0.072,-9.07636 -4.10603,0.1441 z"
       id="path4268-8"
       sodipodi:nodetypes="ccccc" />
    <path
       style="fill:none;stroke:#000000;stroke-width:1.61357343px;stroke-linecap:butt;stroke-linejoin:miter;stroke-opacity:1"
       d="m 119.22224,290.84462 0.14409,13.61453 4.82629,0.072 0.072,-13.47045 -5.04235,-0.2161 z"
       id="path4272-2" />
    <path
       style="fill:none;stroke:#000000;stroke-width:1.61357343px;stroke-linecap:butt;stroke-linejoin:miter;stroke-opacity:1"
       d="m 125.84942,312.59905 5.61869,0 0,-2.44918 -0.93645,-1.80086 -1.87289,-0.6483 -1.72883,0.6483 -1.08052,1.80086 0,2.44918 z"
       id="path4276-9" />
    <path
       style="fill:none;stroke:#000000;stroke-width:1.61357343px;stroke-linecap:butt;stroke-linejoin:miter;stroke-opacity:1"
       d="m 118.14172,325.85341 22.47477,0 3.31359,3.81782 3.24155,4.61021 0.1441,11.95774 -1.87293,4.17799 -4.6102,5.47463 -23.05106,0.14409 -3.45766,-2.80936 -3.52969,-4.75428 -0.4322,-3.24154 -0.2161,-10.44501 2.16102,-3.5297 5.83481,-5.40258 z"
       id="path4266-21" />
    <path
       style="fill:none;stroke:#000000;stroke-width:1.61357343px;stroke-linecap:butt;stroke-linejoin:miter;stroke-opacity:1"
       d="m 133.19694,331.47209 0.1441,8.86025 4.03393,0.072 -0.072,-9.07635 -4.10602,0.1441 z"
       id="path4268-85"
       sodipodi:nodetypes="ccccc" />
    <path
       style="fill:none;stroke:#000000;stroke-width:1.61357343px;stroke-linecap:butt;stroke-linejoin:miter;stroke-opacity:1"
       d="m 120.08664,330.89582 0.1441,13.61453 4.82629,0.072 0.072,-13.47045 -5.04236,-0.2161 z"
       id="path4272-9" />
    <path
       style="fill:none;stroke:#000000;stroke-width:1.61357343px;stroke-linecap:butt;stroke-linejoin:miter;stroke-opacity:1"
       d="m 126.71383,352.65025 5.61869,0 0,-2.44918 -0.93645,-1.80086 -1.87289,-0.64831 -1.72884,0.64831 -1.08051,1.80086 0,2.44918 z"
       id="path4276-99" />
    <path
       style="fill:none;stroke:#000000;stroke-width:1.61357343px;stroke-linecap:butt;stroke-linejoin:miter;stroke-opacity:1"
       d="m 146.73944,104.52732 -0.28814,17.72049 -36.01726,-0.57628 0,-17.00015 35.29692,0.28814 1.00848,0.14408"
       id="path4384" />
    <path
       style="fill:none;stroke:#000000;stroke-width:1.61357343px;stroke-linecap:butt;stroke-linejoin:miter;stroke-opacity:1"
       d="m 138.93628,107.70169 -23.4306,0.10188 0.10181,11.91904 23.94003,0.10188 -0.10182,-12.53029"
       id="path4386" />
    <path
       style="fill:none;stroke:#000000;stroke-width:1.61357343px;stroke-linecap:butt;stroke-linejoin:miter;stroke-opacity:1"
       d="m 138.32506,107.80356 1.01871,-0.10188"
       id="path4388" />
    <path
       sodipodi:type="arc"
       style="fill:none;stroke:#000000;stroke-width:1;stroke-linecap:butt;stroke-linejoin:miter;stroke-miterlimit:4;stroke-opacity:1;stroke-dasharray:none;stroke-dashoffset:0"
       id="path4411"
       sodipodi:cx="115.53571"
       sodipodi:cy="37.362179"
       sodipodi:rx="4.1668792"
       sodipodi:ry="4.0406103"
       d="m 119.70259,37.362179 c 0,2.231567 -1.86557,4.04061 -4.16688,4.04061 -2.3013,0 -4.16688,-1.809043 -4.16688,-4.04061 0,-2.231568 1.86558,-4.040611 4.16688,-4.040611 2.30131,0 4.16688,1.809043 4.16688,4.040611 z"
       transform="matrix(1.6135734,0,0,1.6135734,-57.982686,-2.5817465)" />
    <path
       sodipodi:type="arc"
       style="fill:none;stroke:#000000;stroke-width:1;stroke-linecap:butt;stroke-linejoin:miter;stroke-miterlimit:4;stroke-opacity:1;stroke-dasharray:none;stroke-dashoffset:0"
       id="path4413"
       sodipodi:cx="115.66964"
       sodipodi:cy="37.585396"
       sodipodi:rx="2.7232144"
       sodipodi:ry="2.6339285"
       d="m 118.39285,37.585396 c 0,1.454678 -1.21922,2.633928 -2.72321,2.633928 -1.50399,0 -2.72321,-1.17925 -2.72321,-2.633928 0,-1.454679 1.21922,-2.633929 2.72321,-2.633929 1.50399,0 2.72321,1.17925 2.72321,2.633929 z"
       transform="matrix(1.6135734,0,0,1.6135734,-58.126755,-2.8698846)" />
    <path
       style="fill:none;stroke:#000000;stroke-width:1.61357343px;stroke-linecap:butt;stroke-linejoin:miter;stroke-opacity:1"
       d="m 139.03816,37.40987 -1.62995,-4.278632 -3.25992,-0.814977 -9.98347,0.203744 -4.07489,1.629954 -2.03744,4.278634"
       id="path4425" />
    <path
       style="fill:none;stroke:#000000;stroke-width:1.61357343px;stroke-linecap:butt;stroke-linejoin:miter;stroke-opacity:1"
       d="M 133.36608,31.705026 132.75486,19.88785 129.29119,8.478164 127.45749,5.0145091"
       id="path4427" />
    <path
       style="fill:none;stroke:#000000;stroke-width:1.61357343px;stroke-linecap:butt;stroke-linejoin:miter;stroke-opacity:1"
       d="m 124.36855,32.112515 -1.01871,-13.854619 -2.24119,-8.149777 -1.83371,-4.6861211"
       id="path4429" />
    <text
       xml:space="preserve"
       style="font-size:103.26869965px;font-style:normal;font-weight:normal;fill:#ff0a0a;fill-opacity:1;stroke:none;font-family:Bitstream Vera Sans"
       x="147.01694"
       y="230.96707"
       id="text4431"><tspan
         sodipodi:role="line"
         id="tspan4433"
         x="147.01694"
         y="230.96707"
         style="font-size:20.97645378px;fill:#ff0a0a;fill-opacity:1">1</tspan></text>
    <text
       xml:space="preserve"
       style="font-size:103.26869965px;font-style:normal;font-weight:normal;fill:#ff0a0a;fill-opacity:1;stroke:none;display:inline;font-family:Bitstream Vera Sans"
       x="146.64673"
       y="271.2121"
       id="text4431-7"><tspan
         sodipodi:role="line"
         id="tspan4433-7"
         x="146.64673"
         y="271.2121"
         style="font-size:20.97645378px;fill:#ff0a0a;fill-opacity:1">2</tspan></text>
    <text
       xml:space="preserve"
       style="font-size:103.26869965px;font-style:normal;font-weight:normal;fill:#ff0a0a;fill-opacity:1;stroke:none;display:inline;font-family:Bitstream Vera Sans"
       x="147.4617"
       y="308.29361"
       id="text4431-8"><tspan
         sodipodi:role="line"
         id="tspan4433-4"
         x="147.4617"
         y="308.29361"
         style="font-size:20.97645378px;fill:#ff0a0a;fill-opacity:1">3</tspan></text>
    <text
       xml:space="preserve"
       style="font-size:103.26869965px;font-style:normal;font-weight:normal;fill:#ff0a0a;fill-opacity:1;stroke:none;display:inline;font-family:Bitstream Vera Sans"
       x="147.4617"
       y="349.44998"
       id="text4431-6"><tspan
         sodipodi:role="line"
         id="tspan4433-49"
         x="147.4617"
         y="349.44998"
         style="font-size:20.97645378px;fill:#ff0a0a;fill-opacity:1">4</tspan></text>
  </g>
</svg>
