<?xml version="1.0" encoding="UTF-8" standalone="no"?>
<!-- Created with Inkscape (http://www.inkscape.org/) -->

<svg
   xmlns:dc="http://purl.org/dc/elements/1.1/"
   xmlns:cc="http://creativecommons.org/ns#"
   xmlns:rdf="http://www.w3.org/1999/02/22-rdf-syntax-ns#"
   xmlns:svg="http://www.w3.org/2000/svg"
   xmlns="http://www.w3.org/2000/svg"
   xmlns:sodipodi="http://sodipodi.sourceforge.net/DTD/sodipodi-0.dtd"
   xmlns:inkscape="http://www.inkscape.org/namespaces/inkscape"
   width="174.74625"
   height="377.28183"
   id="svg2"
   version="1.1"
   inkscape:version="0.47 r22583"
   sodipodi:docname="tweetawatt.svg"
   style="display:inline">
  <defs
     id="defs4">
    <inkscape:perspective
       sodipodi:type="inkscape:persp3d"
       inkscape:vp_x="0 : 526.18109 : 1"
       inkscape:vp_y="0 : 1000 : 0"
       inkscape:vp_z="744.09448 : 526.18109 : 1"
       inkscape:persp3d-origin="372.04724 : 350.78739 : 1"
       id="perspective10" />
    <inkscape:perspective
       id="perspective2824"
       inkscape:persp3d-origin="0.5 : 0.33333333 : 1"
       inkscape:vp_z="1 : 0.5 : 1"
       inkscape:vp_y="0 : 1000 : 0"
       inkscape:vp_x="0 : 0.5 : 1"
       sodipodi:type="inkscape:persp3d" />
    <inkscape:perspective
       id="perspective3642"
       inkscape:persp3d-origin="0.5 : 0.33333333 : 1"
       inkscape:vp_z="1 : 0.5 : 1"
       inkscape:vp_y="0 : 1000 : 0"
       inkscape:vp_x="0 : 0.5 : 1"
       sodipodi:type="inkscape:persp3d" />
    <inkscape:perspective
       id="perspective3642-8"
       inkscape:persp3d-origin="0.5 : 0.33333333 : 1"
       inkscape:vp_z="1 : 0.5 : 1"
       inkscape:vp_y="0 : 1000 : 0"
       inkscape:vp_x="0 : 0.5 : 1"
       sodipodi:type="inkscape:persp3d" />
    <inkscape:perspective
       id="perspective3642-3"
       inkscape:persp3d-origin="0.5 : 0.33333333 : 1"
       inkscape:vp_z="1 : 0.5 : 1"
       inkscape:vp_y="0 : 1000 : 0"
       inkscape:vp_x="0 : 0.5 : 1"
       sodipodi:type="inkscape:persp3d" />
    <inkscape:perspective
       id="perspective3642-6"
       inkscape:persp3d-origin="0.5 : 0.33333333 : 1"
       inkscape:vp_z="1 : 0.5 : 1"
       inkscape:vp_y="0 : 1000 : 0"
       inkscape:vp_x="0 : 0.5 : 1"
       sodipodi:type="inkscape:persp3d" />
    <inkscape:perspective
       id="perspective3642-7"
       inkscape:persp3d-origin="0.5 : 0.33333333 : 1"
       inkscape:vp_z="1 : 0.5 : 1"
       inkscape:vp_y="0 : 1000 : 0"
       inkscape:vp_x="0 : 0.5 : 1"
       sodipodi:type="inkscape:persp3d" />
  </defs>
  <sodipodi:namedview
     id="base"
     pagecolor="#ffffff"
     bordercolor="#666666"
     borderopacity="1.0"
     inkscape:pageopacity="0.0"
     inkscape:pageshadow="2"
     inkscape:zoom="1.979899"
     inkscape:cx="195.46015"
     inkscape:cy="108.04275"
     inkscape:document-units="px"
     inkscape:current-layer="layer2"
     showgrid="false"
     inkscape:window-width="1912"
     inkscape:window-height="1053"
     inkscape:window-x="1920"
     inkscape:window-y="0"
     inkscape:window-maximized="1" />
  <metadata
     id="metadata7">
    <rdf:RDF>
      <cc:Work
         rdf:about="">
        <dc:format>image/svg+xml</dc:format>
        <dc:type
           rdf:resource="http://purl.org/dc/dcmitype/StillImage" />
        <dc:title></dc:title>
      </cc:Work>
    </rdf:RDF>
  </metadata>
  <g
     inkscape:groupmode="layer"
     id="layer2"
     inkscape:label="Layer"
     transform="translate(-74.251288,-24.031967)">
    <path
       style="fill:none;stroke:#000000;stroke-width:1px;stroke-linecap:butt;stroke-linejoin:miter;stroke-opacity:1"
       d="m 74.751288,52.311162 5.555839,-7.071068 10.101526,-3.030457 26.263967,-5.555839 21.71828,-3.030458 24.24366,-0.505076 23.73858,0.505076 19.69798,2.020305 1.51523,-8.08122 4.54568,-3.030458 6.566,0.505076 2.52538,5.555839 -0.50508,10.606602 14.14214,1.515229 7.07106,8.586297 5.55584,14.142135 1.01016,13.63706 -2.02031,300.520385 -3.53553,5.55584 -6.06092,3.53553 -24.24366,6.06092 -2.52538,-0.50508 c -0.33672,0 -0.67344,0 -1.01015,0 l -19.1929,4.04061 -24.24366,2.52538 -30.80966,-1.01015 -28.28427,-3.03046 -19.697971,-5.55584 -5.555839,-6.56599 -1.010153,-5.55584 -5.555839,-326.784348 z"
       id="path2831" />
    <path
       style="fill:none;stroke:#000000;stroke-width:1px;stroke-linecap:butt;stroke-linejoin:miter;stroke-opacity:1"
       d="m 220.71833,40.694408 -4.04061,1.515229 -5.05076,0 -4.54569,-2.525382 -1.01015,-4.04061"
       id="path2854" />
    <path
       style="fill:none;stroke:#000000;stroke-width:1px;stroke-linecap:butt;stroke-linejoin:miter;stroke-opacity:1"
       d="M 94.954339,97.768027 229.30463,95.242645 228.79955,158.37718 95.964492,159.89241 94.954339,97.768027 z"
       id="path2856" />
    <path
       sodipodi:type="arc"
       style="fill:none;stroke:#000000;stroke-width:1;stroke-linecap:butt;stroke-linejoin:miter;stroke-miterlimit:4;stroke-opacity:1;stroke-dasharray:none;stroke-dashoffset:0"
       id="path2858"
       sodipodi:cx="166.17009"
       sodipodi:cy="335.65897"
       sodipodi:rx="62.124386"
       sodipodi:ry="60.104076"
       d="m 228.29448,335.65897 a 62.124386,60.104076 0 1 1 -124.24878,0 62.124386,60.104076 0 1 1 124.24878,0 z"
       transform="translate(-1.5152288,0.50507627)" />
    <path
       style="opacity:0.52816904;fill:none;stroke:#000000;stroke-width:1px;stroke-linecap:butt;stroke-linejoin:miter;stroke-opacity:1;display:inline"
       d="m 92.428962,198.02567 -0.50508,-16.16244 2.52538,-3.53553 5.05076,-0.50508 4.040608,1.01015 2.52538,5.55584 0,13.63706 -3.03045,3.53554 -6.060918,2.0203 -3.53553,-2.52538 -1.01015,-3.03046 z"
       id="path3632" />
    <path
       style="opacity:0.52816904;fill:none;stroke:#000000;stroke-width:1px;stroke-linecap:butt;stroke-linejoin:miter;stroke-opacity:1;display:inline"
       d="m 125.76399,197.01552 -0.50507,-16.16244 2.52538,-3.53553 5.05076,-0.50508 4.04061,1.01015 2.52538,5.55584 0,13.63706 -3.03045,3.53554 -6.06092,2.0203 -3.53553,-2.52538 -1.01016,-3.03046 z"
       id="path3632-3" />
    <path
       style="opacity:0.52816904;fill:none;stroke:#000000;stroke-width:1px;stroke-linecap:butt;stroke-linejoin:miter;stroke-opacity:1;display:inline"
       d="m 157.07872,196.00537 -0.50507,-16.16244 2.52538,-3.53553 5.05076,-0.50508 4.04061,1.01015 2.52538,5.55584 0,13.63706 -3.03045,3.53554 -6.06092,2.0203 -3.53553,-2.52538 -1.01016,-3.03046 z"
       id="path3632-31" />
    <path
       style="opacity:0.52816904;fill:none;stroke:#000000;stroke-width:1px;stroke-linecap:butt;stroke-linejoin:miter;stroke-opacity:1;display:inline"
       d="m 189.4036,194.49013 -0.50508,-16.16244 2.52538,-3.53553 5.05077,-0.50508 4.04061,1.01015 2.52538,5.55584 0,13.63706 -3.03045,3.53554 -6.06092,2.0203 -3.53554,-2.52538 -1.01015,-3.03046 z"
       id="path3632-5" />
    <path
       style="opacity:0.52816904;fill:none;stroke:#000000;stroke-width:1px;stroke-linecap:butt;stroke-linejoin:miter;stroke-opacity:1;display:inline"
       d="m 220.21325,193.47998 -0.50507,-16.16244 2.52538,-3.53553 5.05076,-0.50508 4.04061,1.01015 2.52538,5.55584 0,13.63706 -3.03045,3.53554 -6.06092,2.0203 -3.53553,-2.52538 -1.01016,-3.03046 z"
       id="path3632-9" />
    <text
       xml:space="preserve"
       style="font-size:64px;font-style:normal;font-weight:normal;fill:#000000;fill-opacity:1;stroke:none;font-family:Bitstream Vera Sans"
       x="89.90358"
       y="88.676659"
       id="text3701"><tspan
         sodipodi:role="line"
         id="tspan3703"
         x="89.90358"
         y="88.676659"
         style="font-size:11px">KILL A WATT</tspan></text>
    <path
       style="fill:none;stroke:#000000;stroke-width:1px;stroke-linecap:butt;stroke-linejoin:miter;stroke-opacity:1"
       d="M 89.3985,93.727417 235.87062,91.202035 233.34524,165.44825 89.903577,165.95332 89.3985,93.727417 z"
       id="path3705" />
    <path
       style="fill:none;stroke:#000000;stroke-width:1px;stroke-linecap:butt;stroke-linejoin:miter;stroke-opacity:1"
       d="m 89.3985,227.06755 145.96704,-3.53553"
       id="path3707" />
    <path
       style="fill:none;stroke:#000000;stroke-width:1px;stroke-linecap:butt;stroke-linejoin:miter;stroke-opacity:1"
       d="M 91.418805,235.14877 235.87062,231.10816"
       id="path3709" />
    <path
       style="fill:none;stroke:#000000;stroke-width:1px;stroke-linecap:butt;stroke-linejoin:miter;stroke-opacity:1"
       d="M 90.913729,241.71476 235.36554,237.67415"
       id="path3711" />
    <rect
       style="fill:none;stroke:#000000;stroke-width:1;stroke-linecap:butt;stroke-linejoin:miter;stroke-miterlimit:4;stroke-opacity:1;stroke-dasharray:none;stroke-dashoffset:0"
       id="rect3723"
       width="5.5558391"
       height="27.779196"
       x="145.96704"
       y="315.4559"
       ry="2.7779195" />
    <rect
       style="fill:none;stroke:#000000;stroke-width:1;stroke-linecap:butt;stroke-linejoin:miter;stroke-miterlimit:4;stroke-opacity:1;stroke-dasharray:none;stroke-dashoffset:0"
       id="rect3725"
       width="5.5558391"
       height="21.718279"
       x="178.797"
       y="316.46603"
       ry="2.7779195" />
    <path
       sodipodi:type="arc"
       style="fill:none;stroke:#000000;stroke-width:1;stroke-linecap:butt;stroke-linejoin:miter;stroke-miterlimit:4;stroke-opacity:1;stroke-dasharray:none;stroke-dashoffset:0"
       id="path3727"
       sodipodi:cx="174.25131"
       sodipodi:cy="366.21606"
       sodipodi:rx="4.5456862"
       sodipodi:ry="4.7982244"
       d="m 178.797,366.21606 a 4.5456862,4.7982244 0 1 1 -9.09137,0 4.5456862,4.7982244 0 1 1 9.09137,0 z"
       transform="translate(-8.5862962,-2.0203052)" />
  </g>
</svg>
